custom-analysis
version=1
nRows=9
nColumns=42
inDegrees=no

This file contains tibia displacement and acting force.

Units are S.I. units (seconds, meters, Newtons, ...)
Angles are in degrees.

endheader
time	APT	SIT	knee_angle	aACL_R_force	pACL_R_force	aPCL_R_force	pPCL_R_force	aMCL_R_force	mMCL_R_force	pMCL_R_force	aLCL_R_force	mLCL_R_force	pLCL_R_force	aACL_R_length	pACL_R_length	aPCL_R_length	pPCL_R_length	aMCL_R_length	mMCL_R_length	pMCL_R_length	aLCL_R_length	mLCL_R_length	pLCL_R_length	aACL_R_strain	pACL_R_strain	aPCL_R_strain	pPCL_R_strain	aMCL_R_strain	mMCL_R_strain	pMCL_R_strain	aLCL_R_strain	mLCL_R_strain	pLCL_R_strain	femur_lat_meniscii_force_r	femur_lat_meniscii_torque_r	femur_med_meniscii_force_r	femur_med_meniscii_torque_r	femur_lat_tibia_force_r	femur_lat_tibia_torque_r	femur_med_tibia_force_r	femur_med_tibia_torque_r
      0.72034529	      0.00097794	     -0.00031352	      1.66574369	     19.74693455	     38.55006324	      0.00000000	      0.00000000	      0.00000000	      4.10067867	     16.67565135	      3.25268264	      0.00000000	      5.52411632	      0.03364189	      0.02803484	      0.02900752	      0.02944893	      0.05625312	      0.06118156	      0.06354841	      0.05716757	      0.05567894	      0.05386167	      0.05112852	      0.06358949	     -0.06714144	     -0.02123339	     -0.03056983	      0.02321419	      0.04644324	      0.02126518	     -0.01135794	      0.02901980	     69.06322753	     14.03649472	    100.87596792	     21.52192855	      0.00000000	      0.00000000	      0.00000000	      0.00000000
      0.72375701	      0.00097770	     -0.00031484	      1.66574369	     19.43508691	     38.24340106	      0.00000000	      0.00000000	      0.00000000	      3.18490572	     15.78457663	      1.85191090	      0.00000000	      4.12686545	      0.03364254	      0.02803540	      0.02900896	      0.02945041	      0.05625472	      0.06118314	      0.06354996	      0.05716876	      0.05568013	      0.05386286	      0.05114881	      0.06361092	     -0.06709500	     -0.02118422	     -0.03054225	      0.02324070	      0.04646878	      0.02128659	     -0.01133682	      0.02904244	     70.60926551	     14.35319319	    102.54101406	     21.90617068	      0.00000000	      0.00000000	      0.00000000	      0.00000000
      0.72716873	      0.00097833	     -0.00031350	      1.66574369	     19.75895474	     38.53989933	      0.00000000	      0.00000000	      0.00000000	      4.27236663	     16.84658846	      3.28615090	      0.00000000	      5.55178799	      0.03364152	      0.02803431	      0.02900758	      0.02944906	      0.05625390	      0.06118228	      0.06354910	      0.05716686	      0.05567821	      0.05386094	      0.05111671	      0.06356938	     -0.06713934	     -0.02122915	     -0.03055651	      0.02322626	      0.04645463	      0.02125252	     -0.01137083	      0.02900573	     69.28231980	     14.08014162	    100.41588373	     21.43298681	      0.00000000	      0.00000000	      0.00000000	      0.00000000
      0.73058046	      0.00097815	     -0.00031512	      1.66574369	     19.38827558	     38.17471482	      0.00000000	      0.00000000	      0.00000000	      3.16267941	     15.76853710	      1.62997044	      0.00000000	      3.89972144	      0.03364225	      0.02803490	      0.02900931	      0.02945086	      0.05625611	      0.06118446	      0.06355122	      0.05716801	      0.05567935	      0.05386207	      0.05113969	      0.06359195	     -0.06708364	     -0.02116921	     -0.03051846	      0.02326268	      0.04648959	      0.02127320	     -0.01135060	      0.02902731	     71.20404678	     14.47283528	    102.31295633	     21.87680742	      0.00000000	      0.00000000	      0.00000000	      0.00000000
      0.73399218	      0.00097897	     -0.00031354	      1.66574369	     19.77614779	     38.52996270	      0.00000000	      0.00000000	      0.00000000	      4.44324277	     17.02055099	      3.35294593	      0.00000000	      5.61178068	      0.03364100	      0.02803355	      0.02900766	      0.02944927	      0.05625533	      0.06118363	      0.06355039	      0.05716552	      0.05567684	      0.05385955	      0.05110072	      0.06354061	     -0.06713670	     -0.02122226	     -0.03053186	      0.02324884	      0.04647587	      0.02122870	     -0.01139512	      0.02897920	     69.66579508	     14.15504133	     99.73534095	     21.30593229	      0.00000000	      0.00000000	      0.00000000	      0.00000000
      0.73740390	      0.00097880	     -0.00031548	      1.66574369	     19.33545190	     38.09637654	      0.00000000	      0.00000000	      0.00000000	      3.10553711	     15.72191061	      1.38940909	      0.00000000	      3.65344331	      0.03364188	      0.02803424	      0.02900971	      0.02945142	      0.05625809	      0.06118635	      0.06355304	      0.05716674	      0.05567803	      0.05386072	      0.05112797	      0.06356684	     -0.06707093	     -0.02115093	     -0.03048423	      0.02329440	      0.04651955	      0.02125039	     -0.01137404	      0.02900161	     72.01274193	     14.63683182	    101.94845911	     21.82711363	      0.00000000	      0.00000000	      0.00000000	      0.00000000
      0.74081562	      0.00097979	     -0.00031360	      1.66574369	     19.80143301	     38.52434470	      0.00000000	      0.00000000	      0.00000000	      4.62552757	     17.20884443	      3.46106261	      0.00000000	      5.71263531	      0.03364040	      0.02803263	      0.02900771	      0.02944949	      0.05625722	      0.06118543	      0.06355210	      0.05716364	      0.05567491	      0.05385759	      0.05108173	      0.06350579	     -0.06713537	     -0.02121504	     -0.03049917	      0.02327891	      0.04650409	      0.02119510	     -0.01142940	      0.02894177	     70.17265681	     14.25594787	     98.87510268	     21.14794781	      0.00000000	      0.00000000	      0.00000000	      0.00000000
      0.74380984	      0.00097976	     -0.00031525	      1.66574369	     19.43650986	     38.16304347	      0.00000000	      0.00000000	      0.00000000	      3.51616023	     16.13393960	      1.83253740	      0.00000000	      4.08865919	      0.03364111	      0.02803316	      0.02900941	      0.02945130	      0.05625978	      0.06118794	      0.06355454	      0.05716445	      0.05567569	      0.05385835	      0.05110399	      0.06352579	     -0.06708044	     -0.02115465	     -0.03045519	      0.02332087	      0.04654427	      0.02120945	     -0.01141561	      0.02895631	     72.22778225	     14.67749036	    100.65696257	     21.55070520	      0.00000000	      0.00000000	      0.00000000	      0.00000000
      0.74680406	      0.00098046	     -0.00031469	      1.66574369	     19.60186081	     38.30599809	      0.00000000	      0.00000000	      0.00000000	      4.07599493	     16.68624690	      2.56073443	      0.00000000	      4.81100452	      0.03364047	      0.02803235	      0.02900876	      0.02945075	      0.05626024	      0.06118835	      0.06355492	      0.05716274	      0.05567396	      0.05385661	      0.05108394	      0.06349533	     -0.06710135	     -0.02117304	     -0.03044715	      0.02332773	      0.04655049	      0.02117896	     -0.01144633	      0.02892298	     71.80768482	     14.58960679	     99.35328622	     21.27597918	      0.00000000	      0.00000000	      0.00000000	      0.00000000
